<?xml version="1.0" encoding="UTF-8" standalone="no"?>
<!DOCTYPE svg PUBLIC "-//W3C//DTD SVG 1.1//EN" "http://www.w3.org/Graphics/SVG/1.1/DTD/svg11.dtd">
<svg width="100%" height="100%" viewBox="0 0 304 129" version="1.1" xmlns="http://www.w3.org/2000/svg" xmlns:xlink="http://www.w3.org/1999/xlink" xml:space="preserve" xmlns:serif="http://www.serif.com/" style="fill-rule:evenodd;clip-rule:evenodd;stroke-linejoin:round;stroke-miterlimit:2;">
    <g transform="matrix(1,0,0,1,0,-304)">
        <g id="Fuchsia" transform="matrix(1,0,0,1,1.9007e-13,304.019)">
            <rect x="0" y="0" width="304" height="128" style="fill:none;"/>
            <g transform="matrix(1,0,0,1,2,-64)">
                <path d="M112,128L112,128Z" style="fill:none;"/>
            </g>
            <g transform="matrix(1,0,0,1,-94,-64)">
                <g transform="matrix(1,0,0,1,96,0)">
                    <path d="M112,127.998C112,128 112,128.002 112,128.004C111.918,155.918 91.943,176 64,176C36,176 16,156 16,128C16,100 36,80 64,80C80.943,80 94.957,87.323 103.382,99.31C103.683,99.75 103.796,100.291 103.695,100.814C103.594,101.337 103.288,101.797 102.845,102.092C99.027,104.648 89.641,110.906 85.865,113.423C84.976,114.016 83.777,113.804 83.144,112.942C78.902,107.368 72.125,104 64,104C50,104 40,114 40,128C40,142 50,152 64,152C74.361,152 82.532,146.523 86.079,138L61.078,138C60.401,138 59.769,137.658 59.401,137.09C59.032,136.522 58.975,135.806 59.25,135.188C61.03,131.183 64.218,124.01 65.472,121.188C65.793,120.465 66.509,120 67.3,120C73.733,120 102.173,120 110,120C111.105,120 112,120.895 112,122C112,124.341 112,127.914 112,127.998Z" style="fill:rgb(204,51,98);"/>
                </g>
                <g transform="matrix(1,0,0,1,4,-3.29692e-11)">
                    <path d="M300,80C298.939,80 297.922,80.421 297.172,81.172C296.421,81.922 296,82.939 296,84C296,99.616 296,156.384 296,172C296,173.061 296.421,174.078 297.172,174.828C297.922,175.579 298.939,176 300,176C304.439,176 311.561,176 316,176C317.061,176 318.078,175.579 318.828,174.828C319.579,174.078 320,173.061 320,172C320,159.818 320,124 320,124C320,124 345.066,164.732 350.829,174.096C351.557,175.279 352.846,176 354.235,176C358.29,176 366.909,176 372,176C373.061,176 374.078,175.579 374.828,174.828C375.579,174.078 376,173.061 376,172C376,156.384 376,99.616 376,84C376,82.939 375.579,81.922 374.828,81.172C374.078,80.421 373.061,80 372,80C367.561,80 360.439,80 356,80C354.939,80 353.922,80.421 353.172,81.172C352.421,81.922 352,82.939 352,84C352,96.182 352,132 352,132C352,132 326.934,91.268 321.171,81.904C320.443,80.721 319.154,80 317.765,80C313.71,80 305.091,80 300,80Z" style="fill:rgb(204,51,98);"/>
                </g>
                <g transform="matrix(1,0,0,1,94,64)">
                    <path d="M172.979,103.955C165.231,109.097 155.906,112 146,112C146,112 132.827,112 126,112C124.939,112 123.922,111.579 123.172,110.828C122.421,110.078 122,109.061 122,108C122,92.384 122,35.616 122,20C122,18.939 122.421,17.922 123.172,17.172C123.922,16.421 124.939,16 126,16L146,16C156.354,16 165.615,18.735 173.174,23.598C175.227,19.116 179.752,16 185,16C192.175,16 198,21.825 198,29C198,34.79 194.206,39.701 188.972,41.381C192.218,47.997 194,55.642 194,64C194,72.316 192.059,79.926 188.648,86.52C194.05,88.098 198,93.091 198,99C198,106.175 192.175,112 185,112C179.579,112 174.929,108.675 172.979,103.955Z" style="fill:rgb(204,51,98);"/>
                </g>
            </g>
            <g transform="matrix(0.894737,0,0,0.894737,-71.3684,-39.1579)">
                <circle cx="253" cy="141" r="19" style="fill:white;"/>
            </g>
            <g transform="matrix(0.894737,0,0,0.894737,-71.3684,-85.1579)">
                <circle cx="253" cy="141" r="19" style="fill:white;"/>
            </g>
            <g transform="matrix(0.210526,0,0,0.210526,101.737,62.3158)">
                <circle cx="253" cy="141" r="19" style="fill:rgb(39,46,55);"/>
            </g>
            <g transform="matrix(0.210526,0,0,0.210526,101.737,6.31579)">
                <circle cx="253" cy="141" r="19" style="fill:rgb(39,46,55);"/>
            </g>
            <g transform="matrix(1,0,0,1.33333,-89,-108)">
                <path d="M226,126L222,126C220.895,126 220,126.672 220,127.5C220,128.416 220,129.584 220,130.5C220,131.328 220.895,132 222,132C223.745,132 226,132 226,132L226,126Z" style="fill:white;"/>
            </g>
            <g transform="matrix(0.875,0,0,0.857143,-61,-46.5714)">
                <path d="M224,126.664C224,124.088 224.792,122 227,122C227.001,122 227.003,122 227.004,122C229.212,122 232,124.088 232,126.664C232,128.187 232,129.876 232,131.394C232,132.616 231.584,133.787 230.844,134.651C230.103,135.515 228.101,136 227.054,136C227.053,136 227.053,136 227.052,136C224.815,136 224,133.885 224,131.275C224,129.788 224,128.147 224,126.664Z" style="fill:rgb(178,172,148);"/>
            </g>
            <g transform="matrix(1.09782,0,0,0.949462,-118.327,-57.829)">
                <ellipse cx="237.655" cy="128.314" rx="2.345" ry="3.686" style="fill:rgb(39,45,55);"/>
            </g>
        </g>
    </g>
</svg>
