<?xml version="1.0" encoding="UTF-8" standalone="no"?>
<!DOCTYPE svg PUBLIC "-//W3C//DTD SVG 1.1//EN" "http://www.w3.org/Graphics/SVG/1.1/DTD/svg11.dtd">
<svg width="100%" height="100%" viewBox="0 0 305 128" version="1.1" xmlns="http://www.w3.org/2000/svg" xmlns:xlink="http://www.w3.org/1999/xlink" xml:space="preserve" xmlns:serif="http://www.serif.com/" style="fill-rule:evenodd;clip-rule:evenodd;stroke-linecap:round;stroke-linejoin:round;stroke-miterlimit:1.5;">
    <g transform="matrix(1,0,0,1,-348,0)">
        <g id="White" transform="matrix(1,0,0,1,348.033,0)">
            <rect x="0" y="0" width="304" height="128" style="fill:none;"/>
            <g transform="matrix(1,0,0,1,2,-64)">
                <path d="M112,128L112,128Z" style="fill:none;"/>
            </g>
            <g transform="matrix(1,0,0,1,-94,-64)">
                <g transform="matrix(1,0,0,1,96,0)">
                    <path d="M112,127.998C112,128 112,128.002 112,128.004C111.918,155.918 91.943,176 64,176C36,176 16,156 16,128C16,100 36,80 64,80C80.943,80 94.957,87.323 103.382,99.31C103.683,99.75 103.796,100.291 103.695,100.814C103.594,101.337 103.288,101.797 102.845,102.092C99.027,104.648 89.641,110.906 85.865,113.423C84.976,114.016 83.777,113.804 83.144,112.942C78.902,107.368 72.125,104 64,104C50,104 40,114 40,128C40,142 50,152 64,152C74.361,152 82.532,146.523 86.079,138L61.078,138C60.401,138 59.769,137.658 59.401,137.09C59.032,136.522 58.975,135.806 59.25,135.188C61.03,131.183 64.218,124.01 65.472,121.188C65.793,120.465 66.509,120 67.3,120C73.733,120 102.173,120 110,120C111.105,120 112,120.895 112,122C112,124.341 112,127.914 112,127.998Z" style="fill:white;"/>
                    <path d="M112,127.998C112,128 112,128.002 112,128.004C111.918,155.918 91.943,176 64,176C36,176 16,156 16,128C16,100 36,80 64,80C80.943,80 94.957,87.323 103.382,99.31C103.683,99.75 103.796,100.291 103.695,100.814C103.594,101.337 103.288,101.797 102.845,102.092C99.027,104.648 89.641,110.906 85.865,113.423C84.976,114.016 83.777,113.804 83.144,112.942C78.902,107.368 72.125,104 64,104C50,104 40,114 40,128C40,142 50,152 64,152C74.361,152 82.532,146.523 86.079,138L61.078,138C60.401,138 59.769,137.658 59.401,137.09C59.032,136.522 58.975,135.806 59.25,135.188C61.03,131.183 64.218,124.01 65.472,121.188C65.793,120.465 66.509,120 67.3,120C73.733,120 102.173,120 110,120C111.105,120 112,120.895 112,122C112,124.341 112,127.914 112,127.998ZM111,127.998C111,127.999 111,128 111,128.001C110.92,155.334 91.361,175 64,175C36.583,175 17,155.417 17,128C17,100.583 36.583,81 64,81C80.587,81 94.315,88.15 102.564,99.886C102.707,100.094 102.763,100.364 102.713,100.624C102.663,100.884 102.51,101.113 102.29,101.26C98.471,103.817 89.085,110.074 85.311,112.591C84.866,112.887 84.267,112.781 83.95,112.35C79.519,106.528 72.466,103 64,103C49.417,103 39,113.417 39,128C39,142.583 49.417,153 64,153C74.801,153 83.305,147.268 87.002,138.384C87.13,138.076 87.096,137.723 86.911,137.445C86.725,137.167 86.413,137 86.079,137L61.078,137C60.739,137 60.423,136.829 60.239,136.545C60.055,136.261 60.026,135.903 60.164,135.594C61.944,131.589 65.131,124.417 66.386,121.594C66.546,121.233 66.905,121 67.3,121C73.733,121 102.173,121 110,121C110.552,121 111,121.448 111,122L111,127.998Z"/>
                </g>
                <g transform="matrix(1,0,0,1,4,-3.29692e-11)">
                    <path d="M300,80C298.939,80 297.922,80.421 297.172,81.172C296.421,81.922 296,82.939 296,84C296,99.616 296,156.384 296,172C296,173.061 296.421,174.078 297.172,174.828C297.922,175.579 298.939,176 300,176C304.439,176 311.561,176 316,176C317.061,176 318.078,175.579 318.828,174.828C319.579,174.078 320,173.061 320,172C320,159.818 320,124 320,124C320,124 345.066,164.732 350.829,174.096C351.557,175.279 352.846,176 354.235,176C358.29,176 366.909,176 372,176C373.061,176 374.078,175.579 374.828,174.828C375.579,174.078 376,173.061 376,172C376,156.384 376,99.616 376,84C376,82.939 375.579,81.922 374.828,81.172C374.078,80.421 373.061,80 372,80C367.561,80 360.439,80 356,80C354.939,80 353.922,80.421 353.172,81.172C352.421,81.922 352,82.939 352,84C352,96.182 352,132 352,132C352,132 326.934,91.268 321.171,81.904C320.443,80.721 319.154,80 317.765,80C313.71,80 305.091,80 300,80Z" style="fill:white;"/>
                    <path d="M300,80C298.939,80 297.922,80.421 297.172,81.172C296.421,81.922 296,82.939 296,84C296,99.616 296,156.384 296,172C296,173.061 296.421,174.078 297.172,174.828C297.922,175.579 298.939,176 300,176C304.439,176 311.561,176 316,176C317.061,176 318.078,175.579 318.828,174.828C319.579,174.078 320,173.061 320,172C320,159.818 320,124 320,124C320,124 345.066,164.732 350.829,174.096C351.557,175.279 352.846,176 354.235,176C358.29,176 366.909,176 372,176C373.061,176 374.078,175.579 374.828,174.828C375.579,174.078 376,173.061 376,172C376,156.384 376,99.616 376,84C376,82.939 375.579,81.922 374.828,81.172C374.078,80.421 373.061,80 372,80C367.561,80 360.439,80 356,80C354.939,80 353.922,80.421 353.172,81.172C352.421,81.922 352,82.939 352,84C352,96.182 352,132 352,132C352,132 326.934,91.268 321.171,81.904C320.443,80.721 319.154,80 317.765,80C313.71,80 305.091,80 300,80ZM300,81L317.765,81C318.807,81 319.774,81.54 320.32,82.428C326.083,91.793 351.148,132.524 351.148,132.524C351.383,132.905 351.842,133.084 352.272,132.962C352.703,132.84 353,132.447 353,132C353,132 353,96.182 353,84C353,83.204 353.316,82.441 353.879,81.879C354.441,81.316 355.204,81 356,81C360.439,81 367.561,81 372,81C372.796,81 373.559,81.316 374.121,81.879C374.684,82.441 375,83.204 375,84C375,99.616 375,156.384 375,172C375,172.796 374.684,173.559 374.121,174.121C373.559,174.684 372.796,175 372,175C366.909,175 358.29,175 354.235,175C353.193,175 352.226,174.46 351.68,173.572C345.917,164.207 320.852,123.476 320.852,123.476C320.617,123.095 320.158,122.916 319.728,123.038C319.297,123.16 319,123.553 319,124C319,124 319,159.818 319,172C319,172.796 318.684,173.559 318.121,174.121C317.559,174.684 316.796,175 316,175C311.561,175 304.439,175 300,175C299.204,175 298.441,174.684 297.879,174.121C297.316,173.559 297,172.796 297,172C297,156.384 297,99.616 297,84C297,83.204 297.316,82.441 297.879,81.879C298.441,81.316 299.204,81 300,81Z"/>
                </g>
                <g transform="matrix(1,0,0,1,94,64)">
                    <path d="M172.979,103.955C165.231,109.097 155.906,112 146,112C146,112 132.827,112 126,112C124.939,112 123.922,111.579 123.172,110.828C122.421,110.078 122,109.061 122,108C122,92.384 122,35.616 122,20C122,18.939 122.421,17.922 123.172,17.172C123.922,16.421 124.939,16 126,16L146,16C156.354,16 165.615,18.735 173.174,23.598C175.227,19.116 179.752,16 185,16C192.175,16 198,21.825 198,29C198,34.79 194.206,39.701 188.972,41.381C192.218,47.997 194,55.642 194,64C194,72.316 192.059,79.926 188.648,86.52C194.05,88.098 198,93.091 198,99C198,106.175 192.175,112 185,112C179.579,112 174.929,108.675 172.979,103.955Z" style="fill:white;"/>
                    <path d="M172.979,103.955C165.231,109.097 155.906,112 146,112C146,112 132.827,112 126,112C124.939,112 123.922,111.579 123.172,110.828C122.421,110.078 122,109.061 122,108C122,92.384 122,35.616 122,20C122,18.939 122.421,17.922 123.172,17.172C123.922,16.421 124.939,16 126,16L146,16C156.354,16 165.615,18.735 173.174,23.598C175.227,19.116 179.752,16 185,16C192.175,16 198,21.825 198,29C198,34.79 194.206,39.701 188.972,41.381C192.218,47.997 194,55.642 194,64C194,72.316 192.059,79.926 188.648,86.52C194.05,88.098 198,93.091 198,99C198,106.175 192.175,112 185,112C179.579,112 174.929,108.675 172.979,103.955ZM173.903,103.573C173.789,103.297 173.557,103.086 173.271,102.999C172.985,102.911 172.675,102.956 172.426,103.122C164.837,108.158 155.703,111 146,111C146,111 132.827,111 126,111C125.204,111 124.441,110.684 123.879,110.121C123.316,109.559 123,108.796 123,108C123,92.384 123,35.616 123,20C123,19.204 123.316,18.441 123.879,17.879C124.441,17.316 125.204,17 126,17C132.827,17 146,17 146,17C156.147,17 165.225,19.673 172.633,24.439C172.877,24.596 173.177,24.639 173.455,24.558C173.733,24.476 173.962,24.278 174.083,24.014C175.978,19.877 180.156,17 185,17C191.623,17 197,22.377 197,29C197,34.345 193.498,38.878 188.666,40.429C188.39,40.518 188.165,40.722 188.051,40.99C187.938,41.257 187.946,41.561 188.074,41.822C191.257,48.308 193,55.805 193,64C193,72.146 191.102,79.602 187.76,86.06C187.623,86.326 187.611,86.639 187.729,86.913C187.846,87.188 188.081,87.396 188.368,87.48C193.354,88.937 197,93.546 197,99C197,105.623 191.623,111 185,111C179.996,111 175.704,107.93 173.903,103.573Z"/>
                </g>
            </g>
            <g transform="matrix(0.894737,0,0,0.894737,-71.3684,-39.1579)">
                <circle cx="253" cy="141" r="19" style="fill:white;stroke:rgb(39,45,55);stroke-width:1.12px;"/>
            </g>
            <g transform="matrix(0.894737,0,0,0.894737,-71.3684,-85.1579)">
                <circle cx="253" cy="141" r="19" style="fill:white;stroke:rgb(39,45,55);stroke-width:1.12px;"/>
            </g>
            <g transform="matrix(0.210526,0,0,0.210526,101.737,62.3158)">
                <circle cx="253" cy="141" r="19" style="fill:rgb(39,45,55);"/>
            </g>
            <g transform="matrix(0.210526,0,0,0.210526,101.737,6.31579)">
                <circle cx="253" cy="141" r="19" style="fill:rgb(39,45,55);"/>
            </g>
            <g transform="matrix(1,0,0,1.33333,-89,-108)">
                <path d="M226,126L222,126C220.895,126 220,126.672 220,127.5C220,128.416 220,129.584 220,130.5C220,131.328 220.895,132 222,132C223.745,132 226,132 226,132L226,126Z" style="fill:white;stroke:rgb(39,45,55);stroke-width:0.85px;"/>
            </g>
            <g transform="matrix(0.875,0,0,0.857143,-61,-46.5714)">
                <path d="M224,126.664C224,124.088 224.792,122 227,122C227.001,122 227.003,122 227.004,122C229.212,122 232,124.088 232,126.664C232,128.187 232,129.876 232,131.394C232,132.616 231.584,133.787 230.844,134.651C230.103,135.515 228.101,136 227.054,136C227.053,136 227.053,136 227.052,136C224.815,136 224,133.885 224,131.275C224,129.788 224,128.147 224,126.664Z" style="fill:rgb(178,172,148);stroke:rgb(39,45,55);stroke-width:1.15px;"/>
            </g>
            <g transform="matrix(1.09782,0,0,0.949462,-118.327,-57.829)">
                <ellipse cx="237.655" cy="128.314" rx="2.345" ry="3.686" style="fill:rgb(39,45,55);"/>
            </g>
        </g>
    </g>
</svg>
